<svg xmlns="http://www.w3.org/2000/svg" version="1.1" viewBox="4.2 4 92.0 92.0" stroke="#cccccc" stroke-width="0.3%" fill="#0">
    <path d="m95.453 49.766c0 25.031-20.359 45.391-45.391 45.391-8.3438 0-16.5-2.2812-23.594-6.6094-0.75-0.45312-0.96875-1.4062-0.53125-2.1406 0.45312-0.73438 1.4062-0.96875 2.1562-0.53125 6.6094 4.0312 14.203 6.1562 21.969 6.1562 23.297 0 42.266-18.953 42.266-42.266 0-7.4219-1.9062-14.594-5.5625-20.938l0.25 4.2188c0.046875 0.85938-0.60938 1.5938-1.4688 1.6406h-0.09375c-0.82812 0-1.5156-0.64062-1.5625-1.4688l-0.57812-10.188c-0.03125-0.54688 0.21875-1.0781 0.6875-1.3906 0.4375-0.29688 1.0312-0.34375 1.5312-0.125l8.8594 4.0938c0.78125 0.35938 1.125 1.2812 0.76562 2.0625s-1.2812 1.1406-2.0781 0.76562l-3.9844-1.8438c4.1719 6.9844 6.3594 14.938 6.3594 23.172z"/>
    <path d="m74.906 14.016c-0.46875 0.71875-1.4219 0.9375-2.1562 0.48438-6.5312-4.1406-14.094-6.4062-21.859-6.5312-23.312-0.45312-42.594 18.234-42.984 41.547-0.125 7.4062 1.6562 14.609 5.1875 21.016l-0.15625-4.2031c-0.03125-0.85938 0.64062-1.5938 1.5-1.625 0.89062-0.015625 1.5938 0.64062 1.625 1.5l0.40625 10.203c0.015625 0.54688-0.25 1.0625-0.70312 1.375-0.26562 0.15625-0.5625 0.25-0.85938 0.25-0.23438 0-0.46875-0.046875-0.67188-0.15625l-8.7969-4.2344c-0.78125-0.375-1.1094-1.3125-0.73438-2.0938 0.375-0.76562 1.3125-1.0938 2.0938-0.71875l3.9688 1.9219c-4.0625-7.0625-6.125-15.062-5.9844-23.297 0.42188-24.766 20.703-44.609 45.375-44.609h0.78125c8.3438 0.14062 16.453 2.5625 23.484 7.0156 0.73438 0.45312 0.95312 1.4219 0.48438 2.1562z"/>
    <path d="m76.574 35.688h-31.672c-0.86328 0-1.5625-0.69922-1.5625-1.5625s0.69922-1.5625 1.5625-1.5625h31.672c0.86328 0 1.5625 0.69922 1.5625 1.5625s-0.69922 1.5625-1.5625 1.5625z"/>
    <path d="m76.574 31h-31.672c-0.86328 0-1.5625-0.69922-1.5625-1.5625s0.69922-1.5625 1.5625-1.5625h31.672c0.86328 0 1.5625 0.69922 1.5625 1.5625s-0.69922 1.5625-1.5625 1.5625z"/>
    <path d="m76.574 54.438h-31.672c-0.86328 0-1.5625-0.69922-1.5625-1.5625s0.69922-1.5625 1.5625-1.5625h31.672c0.86328 0 1.5625 0.69922 1.5625 1.5625s-0.69922 1.5625-1.5625 1.5625z"/>
    <path d="m76.574 49.75h-31.672c-0.86328 0-1.5625-0.69922-1.5625-1.5625s0.69922-1.5625 1.5625-1.5625h31.672c0.86328 0 1.5625 0.69922 1.5625 1.5625s-0.69922 1.5625-1.5625 1.5625z"/>
    <path d="m76.574 73.188h-31.672c-0.86328 0-1.5625-0.69922-1.5625-1.5625s0.69922-1.5625 1.5625-1.5625h31.672c0.86328 0 1.5625 0.69922 1.5625 1.5625s-0.69922 1.5625-1.5625 1.5625z"/>
    <path d="m76.574 68.5h-31.672c-0.86328 0-1.5625-0.69922-1.5625-1.5625s0.69922-1.5625 1.5625-1.5625h31.672c0.86328 0 1.5625 0.69922 1.5625 1.5625s-0.69922 1.5625-1.5625 1.5625z"/>
    <path d="m42.641 24.688c-0.54688-0.67188-1.5312-0.76562-2.2031-0.21875l-2.4062 1.9688v-1.4844c0-0.85938-0.70312-1.5625-1.5625-1.5625h-13.047c-0.85938 0-1.5625 0.70312-1.5625 1.5625v13.047c0 0.85938 0.70312 1.5625 1.5625 1.5625h13.047c0.85938 0 1.5625-0.70312 1.5625-1.5625v-7.5156l4.3906-3.5938c0.67188-0.54688 0.76562-1.5312 0.21875-2.2031zm-7.7344 11.75h-9.9219v-9.9219h9.9219v2.4844l-3.7656 3.0781-2.9062-2.5312c-0.64062-0.5625-1.6406-0.5-2.2031 0.15625s-0.5 1.6406 0.15625 2.2031l3.8906 3.3906c0.29688 0.26562 0.67188 0.39062 1.0312 0.39062 0.34375 0 0.70312-0.125 0.98438-0.35938l2.8125-2.2969z"/>
    <path d="m42.641 42.859c-0.54688-0.67188-1.5312-0.76562-2.2031-0.21875l-2.4062 1.9688v-1.125c0-0.875-0.70312-1.5625-1.5625-1.5625h-13.047c-0.85938 0-1.5625 0.6875-1.5625 1.5625v13.031c0 0.875 0.70312 1.5625 1.5625 1.5625h13.047c0.85938 0 1.5625-0.6875 1.5625-1.5625v-7.875l4.3906-3.5938c0.67188-0.54688 0.76562-1.5312 0.21875-2.1875zm-7.7344 12.094h-9.9219v-9.9062h9.9219v2.125l-3.7656 3.0781-2.9062-2.5312c-0.65625-0.5625-1.6406-0.5-2.2031 0.15625-0.5625 0.64062-0.5 1.625 0.15625 2.2031l3.8906 3.3906c0.29688 0.25 0.67188 0.375 1.0312 0.375 0.34375 0 0.70312-0.10938 0.98438-0.34375l2.8125-2.2969z"/>
    <path d="m42.641 61.016c-0.54688-0.67188-1.5312-0.76562-2.2031-0.21875l-2.4062 1.9688v-0.76562c0-0.85938-0.70312-1.5625-1.5625-1.5625h-13.047c-0.85938 0-1.5625 0.70312-1.5625 1.5625v13.047c0 0.85938 0.70312 1.5625 1.5625 1.5625h13.047c0.85938 0 1.5625-0.70312 1.5625-1.5625v-8.2344l4.3906-3.5938c0.67188-0.54688 0.76562-1.5312 0.21875-2.2031zm-7.7344 4.3125-3.7656 3.0781-2.9062-2.5312c-0.65625-0.5625-1.6406-0.5-2.2031 0.15625s-0.5 1.6406 0.15625 2.2031l3.8906 3.3906c0.29688 0.26562 0.67188 0.39062 1.0312 0.39062 0.34375 0 0.70312-0.125 0.98438-0.35938l2.8125-2.2969v4.125h-9.9219v-9.9219h9.9219z"/>
</svg>